<svg id="logo_largo" xmlns="http://www.w3.org/2000/svg" viewBox="175 175 150 150"><defs><style>.cls-1{fill:currentColor;}</style></defs>
<g><path class="cls-1" d="M120.29,282.86c-.71,.17-1.4-.36-1.4-1.1,0-2.25-.03-4.41,.05-6.58,.02-.45,.54-1.08,.98-1.29,6.88-3.22,10.16-8.62,10.14-16.18-.01-5.23-.18-10.48,.3-15.67,1.15-12.43,12.68-22.31,25.17-21.92,13.11,.41,23.85,10.44,24.51,23.08,.26,4.97,.11,9.96,.15,14.94,.06,7.5,3.52,12.79,10.38,15.81,.87,.38,1.23,.78,1.21,1.75-.06,2.02-.04,4.05-.03,6.18,0,.73-.68,1.29-1.4,1.11-5.04-1.28-9.13-3.8-12.5-7.58-4.33-4.86-6.36-10.61-6.39-17.09-.02-4.3,0-8.59,0-12.89-.03-9.33-7.14-16.54-16.37-16.57-9.09-.03-16.24,7.3-16.3,16.65-.03,5.35,.13,10.73-.28,16.05-.76,9.95-8.7,19.05-18.23,21.3Z"/>
<path class="cls-1" d="M143.69,277.88h22.87c.63,0,1.15,.51,1.13,1.14-.12,5.01-5.29,10.1-11.28,10.79-6.6,.76-12.56-3.82-13.84-10.59-.13-.7,.4-1.34,1.11-1.34Z"/></g>
<g><path class="cls-1" d="M199.37,232.18c.04-3.22,.04-4.98,.08-5.25h7.7l.08,56.49h-7.86c-.04-31.04-.04-48.14,0-51.24Z"/>
<path class="cls-1" d="M247.66,264.29l-25.87-.04c.46,3.3,1.84,6.06,4.22,8.2,2.41,2.15,5.29,3.3,8.74,3.37,2.41-.04,5.06-.5,7.86-1.38,2.84-.84,5.1-1.95,6.9-3.22h.04l4.1,6.02c-3.37,2.34-6.55,3.95-9.51,4.87s-6.09,1.34-9.43,1.3c-5.56-.11-10.27-1.99-14.07-5.6-3.83-3.56-5.98-8.13-6.48-13.6-.04-.46-.04-.92-.04-1.42,0-2.18,.34-4.22,.96-6.21,1.38-4.25,3.83-7.67,7.36-10.31,3.53-2.65,7.63-3.99,12.3-4.06,4.68,.08,8.78,1.42,12.3,4.06,3.49,2.64,5.94,6.09,7.36,10.35,.61,1.95,.92,4.02,.92,6.21,0,.46,0,.96-.04,1.46h-7.63Zm-.69-8.4c-1.11-2.07-2.68-3.72-4.68-4.94s-4.25-1.84-6.75-1.88c-2.49,0-4.75,.65-6.75,1.88s-3.56,2.87-4.68,4.91l22.84,.04Z"/>
<path class="cls-1" d="M278.29,242.6c3.18-.38,6.59-.58,10.23-.58v7.36c-4.37-.04-7.9,.19-10.62,.65-2.68,.46-4.68,1.53-5.94,3.18-1.3,1.69-1.95,4.29-1.99,7.86l-.08,14.95v7.47h-7.63v-20.85c0-.65,0-1.26,.04-1.84l.04-18.59h7.59v3.03c2.41-1.38,5.17-2.26,8.36-2.64Z"/>
<path class="cls-1" d="M318.53,283.34c-2.84,0-5.25-.15-7.28-.5-1.99-.35-3.99-1.15-5.94-2.42-1.95-1.23-3.3-3.26-3.95-6.06-.57-2.68-.84-6.82-.88-12.45,0-5.64,.04-9.7,.11-12.15h-5.17v-7.63h5.1c-.04-5.21-.04-10.31,0-15.25h7.7l.04,15.25h8.51v7.63h-8.47c-.11,6.21-.11,12.99,0,20.35,.04,4.1,3.64,5.94,10.81,5.63v7.59h-.57Z"/>
<path class="cls-1" d="M366.09,263.56v19.85h-7.59v-4.68c-1.8,1.46-3.79,2.61-6.02,3.41-2.22,.84-4.56,1.23-7.01,1.23-3.79,0-7.24-.92-10.35-2.76-3.14-1.88-5.63-4.37-7.47-7.48-1.88-3.14-2.8-6.59-2.8-10.39s.92-7.25,2.8-10.35c1.84-3.14,4.33-5.64,7.47-7.48,3.1-1.88,6.55-2.8,10.35-2.8,2.45,0,4.79,.42,7.01,1.23,2.18,.8,4.22,1.95,5.98,3.41v-4.68h7.59l.04,19.85v1.61Zm-7.63-.15v-1.3c-.23-3.53-1.61-6.48-4.06-8.82-2.49-2.38-5.44-3.56-8.93-3.56s-6.67,1.3-9.2,3.83c-2.57,2.57-3.83,5.63-3.83,9.2s1.26,6.67,3.83,9.24c2.53,2.53,5.6,3.8,9.2,3.8s6.48-1.19,8.93-3.53c2.45-2.38,3.83-5.29,4.06-8.82v-.04Z"/>
<path class="cls-1" d="M374.18,233.25c-.8-.73-1.19-1.61-1.19-2.65s.38-1.95,1.19-2.68c.8-.73,1.76-1.11,2.87-1.11s2.07,.38,2.87,1.11c.8,.73,1.19,1.61,1.19,2.68s-.38,1.92-1.19,2.65c-.8,.77-1.76,1.11-2.87,1.11s-2.07-.34-2.87-1.11Zm-.88,8.89h7.59l-.04,41.28-7.63-.04,.08-41.24Z"/></g>
</svg>