<?xml version="1.0" encoding="utf-8"?>
<!-- Generator: Adobe Illustrator 23.0.2, SVG Export Plug-In . SVG Version: 6.00 Build 0)  -->
<svg version="1.1" id="Layer_1" xmlns="http://www.w3.org/2000/svg" xmlns:xlink="http://www.w3.org/1999/xlink" x="0px" y="0px"
	 viewBox="0 0 337 200" style="enable-background:new 0 0 337 200;" xml:space="preserve">
<style type="text/css">
	.st0{fill:#F4F6F7;}
	.st1{fill:#F2F2F2;}
	.st2{fill:#5a7e7b;fill-opacity:0;}
	.st3{fill:#5a7e7b;}
</style>
<g>
	<g>
		<g>
			<polygon class="st0" points="232.1,120.2 312.8,105.9 331.9,170.9 254.1,194.6 			"/>
			<path class="st1" d="M312.4,106.5l18.8,64.1l-76.8,23.4l-21.7-73.3L312.4,106.5 M313.1,105.3l-81.7,14.5l22.3,75.4l78.7-23.9
				L313.1,105.3L313.1,105.3z"/>
		</g>
		<g>
			<polygon class="st0" points="320.7,104.5 336.5,101.7 336.5,158.3 			"/>
			<path class="st1" d="M336,102.3v52.6l-14.6-50L336,102.3 M337,101.1l-16.9,3l16.9,57.7V101.1L337,101.1z"/>
		</g>
		<g>
			<polygon class="st0" points="266.4,1.5 268.2,0.5 336.5,0.5 336.5,90.5 317.1,94 			"/>
			<path class="st1" d="M336,1v89.1l-18.6,3.3L267.1,1.7l1.2-0.7H336 M337,0h-69l-2.3,1.3l51.1,93.2l20.1-3.6V0L337,0z"/>
		</g>
		<g>
			<polygon class="st0" points="130.5,77.7 184.6,47.4 219.6,111.2 155.2,122.7 			"/>
			<path class="st1" d="M184.4,48.1l34.5,62.8l-63.4,11.2l-24.3-44.2L184.4,48.1 M184.7,46.7l-55,30.8l25.2,45.7l65.4-11.6
				L184.7,46.7L184.7,46.7z"/>
		</g>
		<g>
			<polygon class="st0" points="170.9,199.5 159.6,133.1 224.1,121.6 246.4,196.9 237.8,199.5 			"/>
			<path class="st1" d="M223.8,122.2l22,74.4l-8,2.4h-66.5l-11.2-65.5L223.8,122.2 M224.5,121L159,132.7l11.5,67.3h67.5l9.1-2.8
				L224.5,121L224.5,121z"/>
		</g>
		<g>
			<polygon class="st0" points="167.9,0.5 251.8,0.5 187.7,36.5 			"/>
			<path class="st1" d="M249.9,1l-62,34.8L168.8,1H249.9 M253.7,0h-86.6l20.4,37.1L253.7,0L253.7,0z"/>
		</g>
		<g>
			<polygon class="st0" points="191.5,43.5 259.5,5.4 275.7,35 207.2,72 			"/>
			<path class="st1" d="M259.3,6.1L275,34.8l-67.6,36.5l-15.2-27.7L259.3,6.1 M259.7,4.7l-68.8,38.6L207,72.7l69.4-37.5L259.7,4.7
				L259.7,4.7z"/>
		</g>
		<g>
			<polygon class="st0" points="211.1,79 279.6,42.1 308.8,95.4 227.9,109.8 			"/>
			<path class="st1" d="M279.4,42.7L308,95.1l-79.8,14.2l-16.4-30L279.4,42.7 M279.8,41.4l-69.4,37.5l17.3,31.5l81.9-14.5
				L279.8,41.4L279.8,41.4z"/>
		</g>
		<g>
			<polygon class="st0" points="21.6,0.5 78.8,0.5 119.6,74.6 56.6,109.9 			"/>
			<path class="st1" d="M78.5,1L119,74.4l-62,34.8L22.3,1H78.5 M79.1,0H20.9l35.4,110.7l64-35.9L79.1,0L79.1,0z"/>
		</g>
		<g>
			<polygon class="st0" points="126.4,199.5 111.2,141.6 151.7,134.5 162.8,199.5 			"/>
			<path class="st1" d="M151.3,135l10.9,64h-35.3l-15-57L151.3,135 M152.1,133.9l-41.5,7.4l15.4,58.8h37.3L152.1,133.9L152.1,133.9z
				"/>
		</g>
		<g>
			<polygon class="st0" points="0.5,0.5 13.2,0.5 58,140.5 0.5,159.9 			"/>
			<path class="st1" d="M12.8,1l44.6,139.2L1,159.2V1H12.8 M13.5,0H0v160.6l58.7-19.7L13.5,0L13.5,0z"/>
		</g>
		<g>
			<polygon class="st0" points="265.4,199.5 334.1,178.6 336.5,186.8 336.5,199.5 			"/>
			<path class="st1" d="M333.8,179.2l2.2,7.6V199h-67.3L333.8,179.2 M334.4,178L262,200h75v-13.3L334.4,178L334.4,178z"/>
		</g>
		<g>
			<polygon class="st0" points="0.5,199.5 0.5,171.5 1.5,171.2 9.6,199.5 			"/>
			<path class="st1" d="M1.2,171.8L9,199H1v-27.1L1.2,171.8 M1.9,170.5L0,171.2V200h10.3L1.9,170.5L1.9,170.5z"/>
		</g>
		<g>
			<polygon class="st0" points="88,0.5 158.8,0.5 180.7,40.4 126.6,70.7 			"/>
			<path class="st1" d="M158.5,1L180,40.2L126.8,70l-38-69H158.5 M159.1,0h-72l39.3,71.4l55-30.8L159.1,0L159.1,0z"/>
		</g>
		<g>
			<polygon class="st0" points="59.1,117.7 123.5,81.6 146.9,124.1 65.8,138.5 			"/>
			<path class="st1" d="M123.3,82.3l22.8,41.5l-80,14.2l-6.4-20L123.3,82.3 M123.7,80.9l-65.2,36.5l6.9,21.6l82.2-14.6L123.7,80.9
				L123.7,80.9z"/>
		</g>
		<g>
			<polygon class="st0" points="17.9,199.5 9.1,168.6 61,151.1 72.9,199.5 			"/>
			<path class="st1" d="M60.7,151.8L72.2,199H18.3l-8.6-30.1L60.7,151.8 M61.4,150.5L8.5,168.3l9.1,31.7h55.9L61.4,150.5L61.4,150.5
				z"/>
		</g>
		<g>
			<polygon class="st0" points="81.1,199.5 68.8,149.2 103.3,143 118.2,199.5 			"/>
			<path class="st1" d="M103,143.6l14.6,55.4h-36l-12.1-49.4L103,143.6 M103.7,142.5l-35.6,6.3L80.7,200h38.1L103.7,142.5
				L103.7,142.5z"/>
		</g>
	</g>
</g>
<g>
	<g>
		<rect x="133.5" y="16" class="st2" width="35" height="35"/>
		<g>
			<path class="st3" d="M180.5,93.7l-2.9,4.6c4.5,1.1,8.1,3.1,8.1,5.6c0,4.2-10.1,6.9-17.1,6.9s-17.1-2.7-17.1-6.9
				c0-2.5,3.6-4.5,8-5.6l-2.9-4.6c-6.3,2.1-10.2,5.9-10.2,10.2c-0.1,6.9,9.5,12,22.1,12s22.3-5.2,22.3-12
				C190.8,99.6,186.7,95.8,180.5,93.7z"/>
			<path class="st3" d="M166.1,101c1.1,1.8,3.8,1.8,4.9,0l15.4-24.1c1.8-3.2,2.8-6.9,2.8-10.9c-0.3-10.5-9-19.3-19.6-20
				c-11.9-0.7-21.8,8.8-21.8,20.6c0,3.8,1.1,7.3,2.8,10.4L166.1,101z M168.5,56.5c5.6,0,10.1,4.6,10.1,10.1
				c0,5.6-4.5,10.1-10.1,10.1s-10.1-4.6-10.1-10.1S162.9,56.5,168.5,56.5z"/>
		</g>
	</g>
</g>
<g>
	<path class="st3" d="M137.9,130.5h2.1l-5.6,13.1h-2.1l-5.6-13.1h2.1l4.6,10.6L137.9,130.5z"/>
	<path class="st3" d="M146.4,141.9c0.5-0.2,1-0.5,1.3-0.8l1.1,1.2c-0.4,0.5-1,0.8-1.8,1.1c-0.8,0.3-1.5,0.4-2.2,0.4
		c-0.9,0-1.8-0.2-2.5-0.7c-0.8-0.4-1.4-1.1-1.9-1.8c-0.5-0.8-0.7-1.7-0.7-2.7c0-1,0.2-1.8,0.7-2.6c0.4-0.8,1-1.4,1.8-1.8
		s1.6-0.7,2.5-0.7c1,0,1.8,0.2,2.6,0.7c0.7,0.5,1.3,1.1,1.6,2s0.6,1.9,0.6,3h-7.8c0.1,0.9,0.5,1.6,1,2.1s1.3,0.8,2.1,0.8
		C145.3,142.2,145.9,142.1,146.4,141.9z M142.7,135.8c-0.6,0.5-0.9,1.2-1.1,2h6c-0.1-0.8-0.4-1.5-0.9-2s-1.2-0.8-2-0.8
		C144,135,143.3,135.3,142.7,135.8z"/>
	<path class="st3" d="M154.4,134c0.6-0.4,1.4-0.6,2.2-0.6v1.6c-0.7,0-1.3,0.1-1.9,0.4c-0.6,0.3-1,0.6-1.3,1.1
		c-0.3,0.5-0.5,1-0.5,1.7v5.2h-1.9v-9.8h1.9v1.9C153.2,135,153.7,134.4,154.4,134z"/>
	<path class="st3" d="M176.2,134c0.5,0.3,1,0.8,1.3,1.3c0.3,0.6,0.5,1.2,0.5,2v6.3h-1.8v-6c0-0.7-0.2-1.3-0.6-1.8s-0.9-0.7-1.5-0.7
		c-0.7,0-1.3,0.2-1.7,0.6c-0.4,0.4-0.7,1-0.7,1.6v6.1h-1.8v-6c0-0.7-0.2-1.3-0.6-1.8c-0.4-0.5-0.9-0.7-1.5-0.7
		c-0.7,0-1.3,0.2-1.7,0.6c-0.4,0.4-0.7,1-0.7,1.6v6.1h-1.9v-9.8h1.9v1.4c0.3-0.5,0.6-0.9,1.1-1.2c0.5-0.3,1-0.4,1.7-0.4
		s1.2,0.1,1.7,0.4c0.5,0.3,0.9,0.7,1.3,1.2c0.3-0.5,0.8-0.9,1.4-1.2c0.6-0.3,1.2-0.4,1.9-0.4C175.1,133.5,175.7,133.6,176.2,134z"/>
	<path class="st3" d="M187.1,134.6c0.7,0.7,1.1,1.7,1.1,3v5.9h-1.8v-1.3c-0.4,0.5-0.8,0.9-1.4,1.1c-0.6,0.3-1.2,0.4-1.8,0.4
		c-1.1,0-1.9-0.3-2.6-0.9c-0.7-0.6-1-1.3-1-2.3c0-0.6,0.2-1.2,0.5-1.7s0.8-0.9,1.4-1.2s1.3-0.4,2-0.4c0.9,0,1.9,0.2,3,0.5v-0.3
		c0-0.7-0.2-1.3-0.6-1.8c-0.4-0.5-1-0.7-1.9-0.7c-0.8,0-1.7,0.3-2.8,0.8l-0.7-1.4c1.3-0.7,2.6-1,3.7-1
		C185.4,133.5,186.4,133.8,187.1,134.6z M185.3,141.8c0.6-0.3,0.9-0.8,1.1-1.3v-1.3c-0.8-0.3-1.7-0.4-2.7-0.4
		c-0.7,0-1.2,0.2-1.7,0.5s-0.7,0.8-0.7,1.3s0.2,0.9,0.6,1.2c0.4,0.3,0.9,0.5,1.6,0.5C184.1,142.3,184.7,142.1,185.3,141.8z"/>
	<path class="st3" d="M197.9,134.1c0.7,0.4,1.2,1,1.6,1.8c0.4,0.8,0.6,1.7,0.6,2.7s-0.2,1.9-0.6,2.7s-0.9,1.4-1.6,1.8
		c-0.7,0.4-1.5,0.7-2.3,0.7c-0.7,0-1.4-0.2-2-0.5c-0.6-0.3-1.1-0.8-1.5-1.4v4.9h-1.9v-13.1h1.9v1.7c0.4-0.6,0.9-1.1,1.5-1.4
		c0.6-0.3,1.3-0.5,2-0.5C196.5,133.5,197.2,133.7,197.9,134.1z M196.7,141.7c0.5-0.3,0.8-0.7,1.1-1.3s0.4-1.1,0.4-1.8
		c0-0.7-0.1-1.3-0.4-1.8c-0.3-0.5-0.6-0.9-1.1-1.2c-0.5-0.3-1-0.4-1.6-0.4c-0.6,0-1.1,0.1-1.6,0.4c-0.5,0.3-0.8,0.7-1.1,1.2
		c-0.3,0.5-0.4,1.1-0.4,1.8c0,0.7,0.1,1.3,0.4,1.8s0.6,1,1.1,1.3c0.5,0.3,1,0.4,1.6,0.4C195.7,142.1,196.3,142,196.7,141.7z"/>
	<path class="st3" d="M208.8,134.6c0.7,0.7,1.1,1.7,1.1,3v5.9H208v-1.3c-0.4,0.5-0.8,0.9-1.4,1.1c-0.6,0.3-1.2,0.4-1.8,0.4
		c-1.1,0-1.9-0.3-2.6-0.9c-0.7-0.6-1-1.3-1-2.3c0-0.6,0.2-1.2,0.5-1.7s0.8-0.9,1.4-1.2s1.3-0.4,2-0.4c0.9,0,1.9,0.2,3,0.5v-0.3
		c0-0.7-0.2-1.3-0.6-1.8c-0.4-0.5-1-0.7-1.9-0.7c-0.8,0-1.7,0.3-2.8,0.8l-0.7-1.4c1.3-0.7,2.6-1,3.7-1
		C207,133.5,208,133.8,208.8,134.6z M206.9,141.8c0.6-0.3,0.9-0.8,1.1-1.3v-1.3c-0.8-0.3-1.7-0.4-2.7-0.4c-0.7,0-1.2,0.2-1.7,0.5
		s-0.7,0.8-0.7,1.3s0.2,0.9,0.6,1.2c0.4,0.3,0.9,0.5,1.6,0.5C205.8,142.3,206.4,142.1,206.9,141.8z"/>
</g>
</svg>
